<svg width="31" height="27" fill="none" xmlns="http://www.w3.org/2000/svg"><path d="M8.9 27c-.3 0-.6-.1-.8-.4-5.4-6.1-6.7-7.5-7-7.9-.7-.9-1.1-2.1-1.1-3.3 0-3 2.4-5.4 5.5-5.4 1.3 0 2.5.5 3.5 1.3 1-.8 2.3-1.3 3.5-1.3 3 0 5.5 2.4 5.5 5.4 0 1.3-.5 2.5-1.3 3.4l-7 7.9c-.2.2-.4.3-.8.3Zm-6-9.5c.3.4 3.5 4 6.1 6.9l6.2-7c.5-.5.7-1.2.7-2 0-1.8-1.5-3.3-3.3-3.3-1 0-2 .5-2.7 1.3-.3.3-.6.4-.9.4-.3 0-.6-.2-.8-.4-.7-.8-1.7-1.3-2.7-1.3-1.8 0-3.3 1.5-3.3 3.3-.1.9.3 1.6.7 2.1-.1 0-.1 0 0 0Z" fill="#000"/><path d="M31 9.5a9.5 9.5 0 1 1-19 0 9.5 9.5 0 0 1 19 0Z" fill="#7DB54F"/><path d="M17.63 12.26h1.4V7.42l.1-.59-.4.47-1.1.79-.38-.51 2.2-1.7h.36v6.38h1.37V13h-3.55v-.74Zm7.83-4.67c0 .353-.067.717-.2 1.09a6.562 6.562 0 0 1-.51 1.11c-.207.373-.44.74-.7 1.1-.26.353-.52.69-.78 1.01l-.49.43v.04l.64-.11h2.18V13h-3.98v-.29c.147-.153.323-.343.53-.57a16.081 16.081 0 0 0 1.3-1.63c.22-.313.417-.63.59-.95.18-.32.323-.637.43-.95.107-.313.16-.61.16-.89 0-.327-.093-.597-.28-.81-.187-.22-.47-.33-.85-.33-.253 0-.5.053-.74.16-.24.1-.447.217-.62.35l-.33-.57c.233-.2.51-.357.83-.47.32-.113.663-.17 1.03-.17.287 0 .54.043.76.13.22.08.407.197.56.35.153.153.27.337.35.55.08.207.12.433.12.68Z" fill="#fff"/></svg>